<?xml version="1.0" encoding="UTF-8"?>
<!DOCTYPE svg PUBLIC "-//W3C//DTD SVG 1.1//EN" "http://www.w3.org/Graphics/SVG/1.1/DTD/svg11.dtd">
<svg xmlns="http://www.w3.org/2000/svg" version="1.1" width="50px" height="50px" style="shape-rendering:geometricPrecision; text-rendering:geometricPrecision; image-rendering:optimizeQuality; fill-rule:evenodd; clip-rule:evenodd" xmlns:xlink="http://www.w3.org/1999/xlink">
<g><path style="opacity:0.645" fill="#fefffe" d="M 21.5,1.5 C 23.5,1.5 25.5,1.5 27.5,1.5C 27.5844,5.77514 29.0844,6.4418 32,3.5C 35.7205,5.16411 36.5539,7.83078 34.5,11.5C 35.5,11.5 36.5,11.5 37.5,11.5C 37.5,13.5 37.5,15.5 37.5,17.5C 33.2249,17.5844 32.5582,19.0844 35.5,22C 33.8359,25.7205 31.1692,26.5539 27.5,24.5C 27.5,25.5 27.5,26.5 27.5,27.5C 25.5,27.5 23.5,27.5 21.5,27.5C 21.4156,23.2249 19.9156,22.5582 17,25.5C 13.2795,23.8359 12.4461,21.1692 14.5,17.5C 13.5,17.5 12.5,17.5 11.5,17.5C 11.5,15.5 11.5,13.5 11.5,11.5C 15.7751,11.4156 16.4418,9.91555 13.5,7C 15.1641,3.27945 17.8308,2.44612 21.5,4.5C 21.5,3.5 21.5,2.5 21.5,1.5 Z M 30.5,8.5 C 30.5494,11.0991 31.5494,13.2658 33.5,15C 31.3291,16.1739 30.3291,18.0072 30.5,20.5C 27.9009,20.5494 25.7342,21.5494 24,23.5C 22.8261,21.3291 20.9928,20.3291 18.5,20.5C 18.4506,17.9009 17.4506,15.7342 15.5,14C 17.6709,12.8261 18.6709,10.9928 18.5,8.5C 21.0991,8.45063 23.2658,7.45063 25,5.5C 26.1739,7.6709 28.0072,8.6709 30.5,8.5 Z M 22.5,12.5 C 23.8333,12.5 25.1667,12.5 26.5,12.5C 26.5,13.8333 26.5,15.1667 26.5,16.5C 25.1667,16.5 23.8333,16.5 22.5,16.5C 22.5,15.1667 22.5,13.8333 22.5,12.5 Z"/></g>
<g><path style="opacity:0.648" fill="#fefffe" d="M 21.5,9.5 C 28.0001,8.49867 30.5001,11.1653 29,17.5C 24.1478,21.4955 20.6478,20.4955 18.5,14.5C 19.2599,12.6396 20.2599,10.973 21.5,9.5 Z M 22.5,12.5 C 22.5,13.8333 22.5,15.1667 22.5,16.5C 23.8333,16.5 25.1667,16.5 26.5,16.5C 26.5,15.1667 26.5,13.8333 26.5,12.5C 25.1667,12.5 23.8333,12.5 22.5,12.5 Z"/></g>
<g><path style="opacity:0.658" fill="#fefffe" d="M 8.5,27.5 C 14.524,26.5171 19.8574,27.8504 24.5,31.5C 27.2629,29.2017 30.4295,27.8684 34,27.5C 38.4804,28.3632 42.9804,29.0299 47.5,29.5C 47.7564,31.7925 47.4231,33.9592 46.5,36C 40.0047,40.9112 33.0047,44.7446 25.5,47.5C 20.7659,46.5533 16.2659,44.8866 12,42.5C 10.0257,44.372 7.85906,44.7053 5.5,43.5C 6.93917,41.0284 9.10583,39.6951 12,39.5C 15.6618,40.5798 19.1618,42.0798 22.5,44C 24.1667,44.6667 25.8333,44.6667 27.5,44C 33.3369,40.5825 39.0036,36.9158 44.5,33C 40.123,33.9946 36.123,35.9946 32.5,39C 27.5,39.6667 22.5,39.6667 17.5,39C 17.0426,38.586 16.7093,38.086 16.5,37.5C 19.6394,36.3972 22.806,36.3972 26,37.5C 27.6268,37.3749 29.1268,36.8749 30.5,36C 27.6229,34.8732 24.6229,34.2065 21.5,34C 19.2417,32.0704 16.7417,30.5704 14,29.5C 9.96512,31.2687 5.79845,32.602 1.5,33.5C 1.5,32.5 1.5,31.5 1.5,30.5C 4.24056,30.2927 6.57389,29.2927 8.5,27.5 Z"/></g>
</svg>
