<?xml version="1.0" standalone="no"?>
<!DOCTYPE svg PUBLIC "-//W3C//DTD SVG 20010904//EN"
 "http://www.w3.org/TR/2001/REC-SVG-20010904/DTD/svg10.dtd">
<svg version="1.0" xmlns="http://www.w3.org/2000/svg"
 width="2560.000000pt" height="464.000000pt" viewBox="0 0 2560.000000 464.000000"
 preserveAspectRatio="xMidYMid meet">

<g transform="translate(0.000000,464.000000) scale(0.100000,-0.100000)"
fill="blue" stroke="none">
<path d="M8235 4180 c-71 -5 -185 -16 -252 -25 -403 -51 -633 -216 -739 -527
-51 -150 -59 -217 -58 -473 0 -226 2 -246 26 -337 62 -229 176 -395 358 -518
83 -56 119 -72 615 -280 253 -106 501 -213 550 -238 169 -86 227 -173 211
-314 -15 -128 -67 -193 -181 -223 -57 -16 -99 -17 -352 -12 -276 6 -439 18
-678 53 -112 16 -338 56 -387 69 l-28 7 0 -405 0 -405 28 -6 c147 -32 580 -82
837 -97 231 -14 660 -6 805 15 472 67 682 185 807 455 139 296 135 809 -7
1095 -73 148 -177 253 -345 349 -44 25 -291 134 -550 243 -633 264 -696 298
-745 400 -19 39 -22 57 -18 132 6 119 40 182 119 222 64 33 155 43 374 43 299
-1 629 -36 968 -104 81 -16 152 -29 158 -29 5 0 9 156 9 404 l0 403 -107 17
c-486 75 -1061 110 -1418 86z"/>
<path d="M12359 4038 c-184 -305 -373 -580 -568 -828 -163 -208 -407 -490
-423 -490 -5 0 -8 324 -8 720 l0 720 -460 0 -460 0 0 -1845 0 -1845 460 0 460
0 0 928 1 927 30 -35 c244 -282 659 -955 964 -1561 l124 -246 623 -6 c343 -4
750 -7 905 -7 l283 0 6 28 c3 15 37 150 75 301 38 150 69 275 69 277 0 2 297
4 660 4 363 0 660 -2 660 -4 0 -2 31 -127 69 -278 38 -150 72 -285 75 -301 l6
-27 491 0 c462 0 490 1 485 18 -3 9 -28 109 -56 222 -276 1105 -757 2473
-1170 3323 l-62 127 -500 -2 -500 -3 -85 -180 c-361 -765 -784 -1943 -1063
-2960 -29 -104 -54 -192 -56 -194 -1 -1 -19 30 -40 70 -212 424 -724 1210
-1013 1554 l-50 60 53 55 c352 364 829 1012 1129 1533 l56 97 -539 0 -538 0
-93 -152z m2856 -1133 c98 -294 232 -718 300 -944 20 -68 39 -130 42 -137 4
-12 -71 -14 -446 -14 -332 0 -451 3 -451 11 0 63 438 1411 451 1387 4 -7 50
-143 104 -303z"/>
<path d="M470 4154 c0 -3 25 -67 56 -142 278 -679 637 -1315 1068 -1889 l136
-182 0 -736 0 -735 465 0 465 0 0 737 0 737 88 115 c457 599 820 1237 1121
1970 28 68 51 125 51 127 0 2 -240 4 -533 4 l-532 0 -24 -67 c-119 -338 -370
-891 -569 -1252 -92 -166 -70 -168 -172 14 -103 185 -312 610 -393 800 -74
174 -187 473 -187 495 0 7 -168 10 -520 10 -286 0 -520 -3 -520 -6z"/>
<path d="M4700 4017 c-404 -847 -888 -2222 -1160 -3299 -33 -130 -60 -239 -60
-242 0 -3 220 -6 488 -6 l488 0 67 267 c37 148 72 285 77 305 l11 38 658 0
657 0 74 -297 c41 -164 77 -301 80 -306 3 -4 225 -6 492 -5 l485 3 -49 195
c-260 1043 -736 2404 -1159 3315 l-81 175 -500 0 -499 0 -69 -143z m658 -1079
c139 -416 352 -1095 352 -1121 0 -4 -202 -7 -450 -7 -247 0 -450 3 -450 6 0 8
113 382 186 614 98 312 257 780 264 780 4 0 48 -123 98 -272z"/>
<path d="M16661 4073 c193 -877 587 -2291 915 -3286 l105 -317 507 2 507 3 52
190 c65 235 299 1174 385 1542 35 150 65 273 68 273 3 0 27 -96 54 -213 58
-254 349 -1418 409 -1637 l42 -155 507 -3 507 -2 105 317 c338 1026 712 2376
924 3331 l10 42 -477 0 -476 0 -49 -257 c-103 -544 -266 -1282 -392 -1778 -95
-375 -117 -455 -123 -455 -7 0 -47 147 -181 675 -151 597 -277 1157 -356 1590
-20 110 -38 206 -40 213 -3 9 -102 12 -452 12 l-448 0 -18 -97 c-91 -513 -369
-1717 -547 -2363 l-12 -45 -48 190 c-150 589 -322 1345 -439 1925 l-78 385
-490 3 -490 2 19 -87z"/>
<path d="M22819 4078 c-336 -668 -803 -1933 -1079 -2923 -59 -213 -170 -652
-170 -674 0 -8 147 -11 488 -11 l487 0 63 253 c34 138 69 276 78 305 l16 52
655 -2 656 -3 34 -150 c18 -82 49 -219 69 -302 l36 -153 489 0 c269 0 489 3
489 6 0 4 -25 105 -55 225 -279 1110 -748 2449 -1155 3297 l-79 162 -490 0
-491 0 -41 -82z m684 -1315 c130 -395 297 -929 297 -947 0 -3 -202 -6 -450 -6
-247 0 -450 3 -450 7 0 9 96 329 161 538 90 287 281 855 288 855 4 0 73 -201
154 -447z"/>
</g>
</svg>
